<svg viewBox="0 0 328 328" xmlns="http://www.w3.org/2000/svg"><path d="M188.145 15.169A26.555 26.555 0 0 0 164.097 0c-14.685 0-26.61 11.918-26.61 26.595 0 14.676 11.925 26.594 26.61 26.594a26.51 26.51 0 0 0 21.781-11.327c46.519 8.274 84.07 42.354 97.276 86.876 5.519-2.955 11.827-4.531 18.43-4.531 2.76 0 5.52.295 8.181.886-15.178-56.932-62.683-100.468-121.62-109.924Zm-24.048 24.723a13.246 13.246 0 0 1-13.305-13.297 13.246 13.246 0 0 1 13.305-13.298c7.392 0 13.306 5.91 13.306 13.298a13.246 13.246 0 0 1-13.306 13.297ZM128.715 45.014c-2.956-5.516-4.533-11.82-4.533-18.42 0-2.757.295-5.515.887-8.175C68.201 33.588 24.639 81.064 15.178 139.966A26.539 26.539 0 0 0 0 164c0 14.676 11.925 26.595 26.61 26.595 14.685 0 26.61-11.919 26.61-26.595 0-9.062-4.533-17.04-11.333-21.768 8.18-46.492 42.28-84.02 86.828-97.218ZM26.61 177.297A13.246 13.246 0 0 1 13.305 164a13.246 13.246 0 0 1 13.305-13.297c7.392 0 13.306 5.91 13.306 13.297a13.246 13.246 0 0 1-13.306 13.297ZM164.097 274.811a26.514 26.514 0 0 0-21.781 11.327c-46.519-8.274-84.069-42.354-97.275-86.876-5.52 2.955-11.827 4.531-18.43 4.531-2.76 0-5.52-.295-8.18-.886 15.177 56.932 62.681 100.468 121.618 109.924A26.555 26.555 0 0 0 164.097 328c14.685 0 26.611-11.918 26.611-26.595 0-14.676-11.926-26.594-26.611-26.594Zm0 39.892a13.246 13.246 0 0 1-13.305-13.298 13.246 13.246 0 0 1 13.305-13.297c7.392 0 13.306 5.91 13.306 13.297a13.247 13.247 0 0 1-13.306 13.298ZM301.584 137.405c-14.685 0-26.61 11.919-26.61 26.595 0 9.062 4.534 17.04 11.334 21.768-8.279 46.491-42.38 84.019-86.927 97.218 2.956 5.516 4.533 11.82 4.533 18.419 0 2.758-.295 5.516-.887 8.176 56.769-15.169 100.331-62.645 109.793-121.547A26.54 26.54 0 0 0 327.998 164c.197-14.676-11.729-26.595-26.414-26.595Zm0 39.892A13.246 13.246 0 0 1 288.279 164a13.246 13.246 0 0 1 13.305-13.297c7.392 0 13.306 5.91 13.306 13.297a13.246 13.246 0 0 1-13.306 13.297Z" fill="#facc15"></path><path d="M164.097 78.306c-47.307 0-85.744 38.415-85.744 85.694s38.437 85.694 85.744 85.694c47.308 0 85.745-38.415 85.745-85.694s-38.437-85.694-85.745-85.694Zm0 144.793c-32.622 0-59.134-26.496-59.134-59.099 0-32.603 26.512-59.099 59.134-59.099 32.623 0 59.135 26.496 59.135 59.099 0 32.603-26.512 59.099-59.135 59.099Z" fill="#facc15"></path></svg>